<?xml version="1.0" standalone="no"?>
<!DOCTYPE svg PUBLIC "-//W3C//DTD SVG 1.1//EN" "http://www.w3.org/Graphics/SVG/1.1/DTD/svg11.dtd" >
<!--
2013-9-30: Created.
-->
<svg>
<metadata>
Created by iconfont
</metadata>
<defs>

<font id="iconfont" horiz-adv-x="1024" >
  <font-face
    font-family="iconfont"
    font-weight="500"
    font-stretch="normal"
    units-per-em="1024"
    ascent="896"
    descent="-128"
  />
    <missing-glyph />
    
    <glyph glyph-name="iconfontshangchuan" unicode="&#58892;" d="M1.751972-85.305483l1020.495033 0 0-63.778582-1020.495033 0 0 63.778582ZM894.684614 297.36294 639.560856 297.36294 639.560856 169.805776 384.437098 169.805776 384.437098 297.36294 129.312316 297.36294 1.751972 42.249635 1.751972-21.528947 1022.247005-21.528947 1022.247005 42.249635ZM448.218293 233.584358 575.77966 233.584358 575.77966 488.688453 799.013844 488.688453 512.000512 775.691049 224.985132 488.688453 448.218293 488.688453Z"  horiz-adv-x="1024" />

    
    <glyph glyph-name="iconfontxiazai" unicode="&#58893;" d="M894.682567 300.004093 735.231625 300.004093 511.997442 76.782126 288.766328 300.004093 129.314363 300.004093 1.751972 44.891811 1.751972-18.886771 1022.245981-18.886771 1022.245981 44.891811ZM1.751972-82.663306l1020.494009 0 0-63.780629-1020.494009 0 0 63.780629ZM799.012821 491.33063 575.778637 491.33063 575.778637 746.443935 448.21727 746.443935 448.21727 491.33063 224.985132 491.33063 511.997442 204.337243Z"  horiz-adv-x="1024" />

    
    <glyph glyph-name="xinxi1" unicode="&#59067;" d="M767.576 554.956L256.01 554.956c-23.563 0-42.631-19.067-42.631-42.631 0-23.563 19.068-42.63 42.631-42.63l511.566 0c23.565 0 42.63 19.067 42.63 42.63C810.206 535.889 791.142 554.956 767.576 554.956zM980.728 219.52700000000004L980.728 810.74c0 47.084-38.171 85.26-85.26 85.26l-767.35 0C81.035 896 42.857 857.824 42.857 810.74l0-852.61c0-47.088 38.178-85.263 85.261-85.263l502.874 0c13.555-2.77 28.191 1.097 38.711 11.616l298.955 298.953C978.501 193.28300000000002 982.522 206.73299999999995 980.728 219.52700000000004zM682.314 17.660999999999945L682.314 171.28200000000004l153.623 0L682.314 17.660999999999945zM639.684 256.544c-23.561 0-42.63-19.068-42.63-42.633 0-0.076 0.006-0.151 0.008-0.229-0.002-0.077-0.008-0.153-0.008-0.229l0-255.325L170.748-41.87199999999996c-23.561 0-42.63 19.066-42.63 42.63l0 767.35c0 23.563 19.07 42.631 42.63 42.631l682.087 0c23.565 0 42.632-19.068 42.632-42.631l0-511.565L639.684 256.543zM767.576 725.4780000000001L256.01 725.4780000000001c-23.563 0-42.631-19.067-42.631-42.631 0-23.563 19.068-42.631 42.631-42.631l511.566 0c23.565 0 42.63 19.068 42.63 42.631C810.206 706.4110000000001 791.142 725.4780000000001 767.576 725.4780000000001z"  horiz-adv-x="1024" />

    
    <glyph glyph-name="zhuye1" unicode="&#58885;" d="M403.244552 188.90667299999996c0-14.843056-12.036128-26.880207-26.882254-26.880207-14.826684 0-26.863834 12.037151-26.863834 26.880207L349.498464 332.38034200000004c0 23.437805 9.550517 44.717458 24.952298 60.117193 15.415085 15.415085 36.691667 24.965601 60.132542 24.965601l153.287175 0c23.436782 0 44.731784-9.550517 60.131519-24.965601 15.415085-15.399735 24.965601-36.679387 24.965601-60.117193l0-227.322355c0-27.15957-11.063987-51.800783-28.900214-69.64008-17.838274-17.83725-42.479487-28.900214-69.63701-28.900214L300.091194 6.517693000000008c-32.080649 0-61.213153 13.085016-82.292238 34.164101-21.076014 21.077038-34.161031 50.210565-34.161031 82.290191L183.637925 400.180518l-95.531773 0c-14.84408 0-26.879184 12.037151-26.879184 26.881231 0 8.810666 4.243651 16.633842 10.81737 21.541619L496.24262 800.07937c10.354835 8.578376 25.25929 8.054443 34.982746-0.648776l419.74076-351.800391c11.356652-9.505491 12.853749-26.433022 3.349281-37.790698-5.294586-6.340405-12.899798-9.613962-20.571525-9.613962l0-0.046049-95.544053 0 0-322.004785c0-19.750833-8.039093-37.664831-21.016663-50.641377-12.96222-12.961196-30.892591-21.016663-50.643424-21.016663l-6.882757 0c-14.82873 0-26.862811 12.037151-26.862811 26.879184 0 14.846126 12.034081 26.881231 26.862811 26.881231l6.882757 0c4.922103 0 9.397021 2.00568 12.638855 5.262864 3.255137 3.25616 5.275143 7.731078 5.275143 12.636808L784.45374 427.061748c0 14.827707 12.038174 26.865881 26.881231 26.865881l48.575322 0-346.644975 290.540166L162.603867 453.927629l47.91222 0c14.82873 0 26.863834-12.038174 26.863834-26.865881l0-304.089763c0-17.250896 7.051603-32.92897 18.410302-44.300972 11.372002-11.357675 27.049053-18.408255 44.300972-18.408255l274.340205 0c12.311397 0 23.514553 5.045923 31.631418 13.162788 8.117888 8.115841 13.161764 19.318998 13.161764 31.632441L619.224582 332.38034200000004c0 8.610098-3.5345 16.449647-9.211802 22.127973-5.693676 5.677303-13.532201 9.210779-22.1423 9.210779L434.583305 363.71909400000004c-8.611122 0-16.45067-3.533476-22.127973-9.210779-5.679349-5.678326-9.211802-13.517875-9.211802-22.127973L403.243529 188.90667299999996z"  horiz-adv-x="1024" />

    
    <glyph glyph-name="jiaohuan2" unicode="&#58882;" d="M173.704 520.146h62.459c1.532 62.941 25.055 114.934 74.709 153.818 39.112 30.643 84.377 40.088 133.478 36.297v-76.197c-1.712 0-3.319 0.067-4.924 0-13.073-0.567-26.248-0.292-39.174-1.958-20.134-2.595-37.566-11.839-52.718-25.207-19.155-16.897-31.169-38.059-36.437-62.956-1.601-7.572-2.054-15.378-3.085-23.492h56.504c-32.162-37.597-63.706-74.468-95.53-111.656-31.744 37.102-63.242 73.916-95.282 111.352zM493.063 63.813999999999965c-6.596-5.002-14.216-6.897-22.322-6.903-80.417-0.026-160.834-0.078-241.247 0.019-18.042 0.026-30.834 9.734-35.463 26.505-0.923 3.343-1.257 6.964-1.257 10.441-0.07 71.462-0.07 142.939-0.049 214.409 0.01 18.05 9.689 31.169 26.593 35.787 3.708 1.005 7.717 1.257 11.576 1.268 39.707 0.078 79.412 0.067 119.112 0.067 39.827 0 79.66-0.022 119.494 0 8.914 0 17.212-1.891 24.361-7.59 8.138-6.495 12.495-14.95 13.326-25.278 0.112-1.365 0.134-2.759 0.134-4.153 0.008-71.458-0.01-142.928 0.034-214.402 0.01-12.378-4.305-22.596-14.294-30.171zM522.463 429.763c-9.659 7.263-14.312 17.146-14.338 29.014-0.078 72.226-0.107 144.448 0.026 216.682 0.026 17.405 10.293 30.39 26.961 34.713 3.482 0.905 7.226 1.117 10.85 1.127 79.667 0.063 159.323 0.037 238.985 0.049 15.265 0 27.345-5.803 34.039-19.941 2.273-4.853 3.564-10.634 3.586-15.997 0.227-72.222 0.196-144.444 0.115-216.669-0.022-17.223-9.978-30.115-26.572-34.626-3.708-1.005-7.719-1.231-11.595-1.231-39.693-0.089-79.401-0.053-119.108-0.053h-119.48c-8.517 0.008-16.515 1.712-23.467 6.929zM796.587 247.48699999999997c-1.824-65.47-26.961-118.801-79.987-157.591-38.106-27.879-81.596-36.015-128.233-32.463v76.279c7.422 0 14.709-0.275 21.973 0.063 8.276 0.397 16.7 0.541 24.776 2.182 30.591 6.222 54.038 23.189 70.853 49.26 12.044 18.643 17.825 39.284 18.199 61.948h-56.096c32.285 37.721 63.824 74.585 95.653 111.777 31.799-37.158 63.293-73.976 95.378-111.455l-62.515 0.005z"  horiz-adv-x="1024" />

    
    <glyph glyph-name="enter" unicode="&#58883;" d="M844.686222 629.3617779900001v-194.787556h-575.715555l160.654222 160.881778-71.224889 70.997333-213.219556-213.447111L73.955556 382.00888898999995l71.224888-70.997333 213.219556-213.447112 71.224889 70.997334-160.654222 160.881778h681.073777V629.3617779900001z"  horiz-adv-x="1024" />

    
    <glyph glyph-name="msnui-forbid" unicode="&#58881;" d="M512.893 829.569q91.765 0 172.824-34.667t141.725-95.333 95.333-141.725 34.667-172.824-34.667-172.824-95.333-141.725-141.725-95.333-172.824-34.667-173.333 34.667-141.725 95.333-95.333 141.725-35.176 172.824 35.176 172.824 95.333 141.725 141.725 95.333 173.333 34.667zM707.638 321.804q29.569 0 49.451 18.353t19.882 46.902q0 29.569-19.882 45.882t-49.451 16.314h-390.51q-29.569 0-49.451-16.314t-19.882-45.882q0-28.549 19.882-46.902t49.451-18.353h390.51z"  horiz-adv-x="1024" />

    
    <glyph glyph-name="xianshi" unicode="&#58977;" d="M77.91887887 673.44356828h771.73812758v-304.42154869c33.79884083-9.60927129 67.48445269-22.94819364 96.42411468-42.16535538V769.86768295c0 53.0173834-43.40811211 96.42411467-96.42411468 96.42411467H77.91887887c-53.01600256 0-96.42411467-43.40673127-96.42411468-96.42411467v-578.77390761c0-53.01600256 43.40811211-96.42411467 96.42411468-96.42411467h289.3869538c0 33.79884083 19.89653541 67.48583355 39.22554527 96.42411467H77.91887887V673.44356828zM411.73162448 576.90622466H174.34437439v-96.42411468H753.11828199v96.42411468h-341.38527668zM174.34299355 384.05523363v-96.42411466h328.61387989c57.87656226 48.27005266 144.12802258 96.42411467 250.16140855 96.42411466H174.34437439zM753.11828199 294.32681611c-159.16261746 0-289.3869538-159.16261746-289.3869538-192.96283913 0-33.68561188 130.22433634-192.84822935 289.3869538-192.84822934S1042.50523581 77.28487471000005 1042.50523581 101.47582508999994c0 24.07772143-130.22433634 192.84822935-289.38695382 192.84822934z m0-323.37082731c-72.05365499 0-130.46460265 58.41232849-130.46460264 130.46460265s58.41232849 130.46460265 130.46460264 130.46460264c72.05365499 0 130.46460265-58.41094766 130.46460265-130.46460264s-58.41232849-130.46460265-130.46460265-130.46460265zM678.66196398 101.42059144999996a72.76064549 72.76064549 0 1 1 148.91263604 0 72.76064549 72.76064549 0 1 1-148.91263604 0z"  horiz-adv-x="1024" />

    
    <glyph glyph-name="delete" unicode="&#58884;" d="M512 275.456l253.3376-253.3376a76.6976 76.6976 0 1 1 108.544 108.544L620.6464 384l253.2352 253.3376a76.6976 76.6976 0 1 1-108.544 108.544L512 492.6464 258.6624 745.8815999999999a76.6976 76.6976 0 1 1-108.544-108.544L403.3536 384 150.1184 130.66240000000005a76.6976 76.6976 0 1 1 108.544-108.544L512 275.35360000000003z"  horiz-adv-x="1024" />

    
    <glyph glyph-name="bi" unicode="&#58886;" d="M429.504-29.20399999999995L994.379 536.1700000000001c15.1 15.1 24.199 36.699 27.299 64.897 3.1 28.1-0.7 57.998-11.3 89.596-10.6 31.599-26.599 57.998-47.898 79.297l-65.897 65.897c-21.299 21.1-47.698 37.098-79.296 47.698-31.499 10.7-61.398 14.5-89.496 11.4-28.1-3.1-49.798-12.2-64.898-27.3L100.118 300.28200000000004 1.322-128l428.182 98.796z m350.784 632.272c19.9-20.599 33.299-46.698 40.099-78.196 6.9-31.599 5.5-57.298-4.1-77.197 0-0.7 0.2-1.7 0.5-3.1l0.5-2.1L500.6 123.19000000000005c-12.999 15.1-23.198 34.699-30.398 58.698-7.2 23.998-11 45.998-11.3 65.897-0.4 19.899 0.9 37.398 3.6 52.497L770.99 611.268l9.3-8.2zM687.592 808.96c16.5 17.8 43.598 24.4 81.297 19.6 37.798-4.8 68.597-19.2 92.696-43.199l50.398-50.398c23.999-23.999 38.398-54.897 43.198-92.696 4.8-37.698-1.7-64.797-19.6-81.296l-47.397-48.398c-6.2 51.498-25.4 93.296-57.598 125.595l-65.797 65.797c-32.299 32.298-74.097 51.098-125.595 56.597l48.398 48.398zM556.898 678.265c16.5 17.2 43.398 23.299 80.797 18.5 37.398-4.8 68.097-19.2 92.096-43.199l8.2-8.2L429.503 333.17999999999995c-15.1-2.7-32.599-3.9-52.498-3.6-19.9 0.3-41.898 4.1-65.897 11.3-24 7.2-43.598 17.299-58.698 30.398l304.487 306.987zM157.715 275.48199999999997l56.598 56.598c24.699-18.5 53.998-33.599 87.996-45.298 33.999-11.7 65.397-17.8 94.196-18.5 0-28.798 6-60.597 18-95.195 11.999-34.699 27.298-64.297 45.797-88.996l-55.597-55.598-156.494-29.898c-10.999 31.598-25.898 56.797-44.798 75.696-18.899 18.9-44.098 33.799-75.696 44.798l29.998 156.393z"  horiz-adv-x="1024" />

    
    <glyph glyph-name="yidong" unicode="&#58928;" d="M1011.44219 371.53177700000003a28.093535 28.093535 0 0 1-7.49161 20.601926l-130.478864 132.976067a26.844934 26.844934 0 0 1-38.082348 0 28.093535 28.093535 0 0 1 0-39.330949l86.153509-88.026411h-225.372584a26.844934 26.844934 0 0 1 0-53.689868h229.118388l-86.777809-88.650711a27.469235 27.469235 0 0 1 0-38.082348 25.596332 25.596332 0 0 1 37.458047 0l124.860158 128.605962a26.844934 26.844934 0 0 1 6.243007 11.861715 26.844934 26.844934 0 0 1 4.370106 13.110316zM98.714441 398.376711l86.777809 89.275012a27.469235 27.469235 0 0 1 0 38.082348 25.596332 25.596332 0 0 1-37.458047 0l-124.860158-128.605962a26.844934 26.844934 0 0 1-6.243007-11.861715 26.220633 26.220633 0 0 1-4.370106-13.734617 29.342137 29.342137 0 0 1 8.11591-21.226227l129.230263-132.976067a26.844934 26.844934 0 0 1 38.082348 0 28.093535 28.093535 0 0 1 0 39.330949L102.460245 344.68684299999995h225.372584a26.844934 26.844934 0 0 1 0 53.689868z m437.01055 474.468597a25.596332 25.596332 0 0 1-10.613114 6.243008A24.972031 24.972031 0 0 1 512.001561 883.458422a26.220633 26.220633 0 0 1-20.601926-8.115911L360.920771 742.366444a28.717836 28.717836 0 0 1 0-39.33095 26.844934 26.844934 0 0 1 38.082348 0l86.777809 88.650712v-232.239893a27.469235 27.469235 0 0 1 7.491609-19.353324 26.220633 26.220633 0 0 1 37.458048 0 27.469235 27.469235 0 0 1 7.491609 19.353324V794.183409L624.375702 706.1569979999999a25.596332 25.596332 0 0 1 37.458048 0 27.469235 27.469235 0 0 1 0 38.082348L536.973592 873.469609z m88.650711-811.591022l-86.777809-88.026411v235.361397a26.844934 26.844934 0 0 1-25.596332 26.844933 26.220633 26.220633 0 0 1-18.729024-8.11591 27.469235 27.469235 0 0 1-7.491609-19.353324v-231.615592l-86.777809 88.650712a26.844934 26.844934 0 0 1-38.082348 0 28.717836 28.717836 0 0 1 0-39.33095l129.854563-132.976067a26.220633 26.220633 0 0 1 21.226227-8.11591 24.972031 24.972031 0 0 1 13.110316 3.745804 24.972031 24.972031 0 0 1 11.861715 6.243008l124.860158 129.230263a27.469235 27.469235 0 0 1 0 38.082348 25.596332 25.596332 0 0 1-36.833747 0zM512.001561-127.90885200000002h-3.745805a38.706649 38.706649 0 0 0-26.844934 12.486016l-129.854563 132.351766a41.203852 41.203852 0 0 0 0 56.811372 38.706649 38.706649 0 0 0 28.093535 11.861715 38.706649 38.706649 0 0 0 28.093536-11.861715l62.430078-66.175883v201.024853a39.33095 39.33095 0 0 0 11.237414 28.093535 38.082348 38.082348 0 0 0 30.590739 11.237414 39.33095 39.33095 0 0 0 38.706649-39.330949v-204.770658l62.430078 66.800184a38.706649 38.706649 0 0 0 66.175884-28.093535 40.579551 40.579551 0 0 0-11.237414-28.093536L545.089503-115.42283599999996a36.209446 36.209446 0 0 0-15.60752-9.364512 36.209446 36.209446 0 0 0-17.480422-3.121504z m-131.727466 187.290236a14.358918 14.358918 0 0 1-9.988812-4.370106 16.23182 16.23182 0 0 1 0-21.850527L499.515545-98.56671500000004a10.613113 10.613113 0 0 1 12.486016-4.370106h4.370105a12.486016 12.486016 0 0 1 6.243008 0l124.860158 129.230263a14.983219 14.983219 0 0 1 0 20.601926 13.734617 13.734617 0 0 1-19.353325 0l-103.00963-104.258231v265.952135a14.358918 14.358918 0 0 1-23.723429 10.613113 14.983219 14.983219 0 0 1-4.370106-10.613113v-261.58203L387.141404 56.25987999999995a14.358918 14.358918 0 0 1-9.988813 4.370105z m476.965801 137.346173a38.082348 38.082348 0 0 0-27.469235 11.861715 39.95525 39.95525 0 0 0-11.237414 27.469234 40.579551 40.579551 0 0 0 11.237414 28.093536l66.175883 67.424485h-199.776251a39.33095 39.33095 0 0 0 0 78.661899h196.030447L824.151954 477.03861a40.579551 40.579551 0 0 0 0 56.811371 39.95525 39.95525 0 0 0 56.187071 0l131.103165-132.976067a40.579551 40.579551 0 0 0 11.237414-28.717836 38.706649 38.706649 0 0 0-5.618707-19.353325 31.83934 31.83934 0 0 0-8.11591-14.358918l-124.860157-128.605962a38.082348 38.082348 0 0 0-26.844934-13.110316z m-161.069603 187.290236a14.358918 14.358918 0 0 1 0-28.717837h259.084826l-108.004036-108.628336a14.983219 14.983219 0 0 1-4.370105-10.613114 14.983219 14.983219 0 0 1 4.370105-9.988812 13.734617 13.734617 0 0 1 19.353325 0l124.860157 128.605962a14.358918 14.358918 0 0 1 3.121504 6.243007 25.596332 25.596332 0 0 1 3.121504 9.364512 14.983219 14.983219 0 0 1-3.121504 13.734618l-129.854564 132.351766a14.983219 14.983219 0 0 1-20.601926 0 16.23182 16.23182 0 0 1 0-21.850527L949.012111 384.017793z m-526.909864-187.290236a38.706649 38.706649 0 0 0-28.093535 11.861715L12.560932 341.565339a42.452453 42.452453 0 0 0-12.486016 30.590739 38.706649 38.706649 0 0 0 5.618707 19.353324 31.215039 31.215039 0 0 0 6.867309 13.734617l124.860157 128.605962a38.706649 38.706649 0 0 0 68.048786-24.972031 39.95525 39.95525 0 0 0-11.237414-27.469235L128.680878 410.862726h199.776252a39.33095 39.33095 0 0 0 0-78.661899H132.426683L199.851168 265.40064299999995a40.579551 40.579551 0 0 0 0-56.811371 38.706649 38.706649 0 0 0-30.590739-11.861715z m0 324.012108a13.734617 13.734617 0 0 1-9.364511-4.370106l-124.860158-128.605962a14.983219 14.983219 0 0 1-3.121504-6.243008 23.099129 23.099129 0 0 1-3.121504-9.988812 17.480422 17.480422 0 0 1 4.370106-12.486016l129.854564-132.976067a14.983219 14.983219 0 0 1 20.601925 0 15.60752 15.60752 0 0 1 0 21.850527L74.991011 357.172859h252.841818a14.358918 14.358918 0 0 1 0 28.717836H69.372304L176.752039 496.391934a14.983219 14.983219 0 0 1 0 20.601926 13.734617 13.734617 0 0 1-9.988813 3.745805z m342.741132-0.624301a38.706649 38.706649 0 0 0-27.469235 11.861715 39.95525 39.95525 0 0 0-11.237414 28.093535V758.598264l-64.927282-62.430078a39.95525 39.95525 0 0 0-56.18707 0 41.203852 41.203852 0 0 0 0 56.811371L481.410822 883.458422A38.706649 38.706649 0 0 0 512.001561 895.944437a36.833746 36.833746 0 0 0 19.977625-6.243008 30.590739 30.590739 0 0 0 13.110317-6.243007l124.860157-129.230263a39.95525 39.95525 0 0 0 11.237414-28.093536 40.579551 40.579551 0 0 0-11.237414-28.093535 39.33095 39.33095 0 0 0-54.938469 0l-62.430079 66.175883v-204.770658a39.33095 39.33095 0 0 0-11.237414-28.093535 38.706649 38.706649 0 0 0-29.342137-11.237414zM498.266944 821.028343v-261.58203a14.983219 14.983219 0 0 1 4.370105-10.613113 13.734617 13.734617 0 0 1 19.353325 0 14.983219 14.983219 0 0 1 4.370105 10.613113V824.774148l106.755434-109.876939a13.734617 13.734617 0 0 1 19.353325 0 14.983219 14.983219 0 0 1 0 20.601926L527.609081 864.729398 521.990374 867.850902A20.601926 20.601926 0 0 1 512.001561 870.972406a14.983219 14.983219 0 0 1-10.613113-4.370106L369.660982 733.626233a16.23182 16.23182 0 0 1 0-21.850528 14.983219 14.983219 0 0 1 20.601926 0z"  horiz-adv-x="1024" />

    
    <glyph glyph-name="xiugaimima" unicode="&#58911;" d="M549.819733 257.43359999999996L346.794667 37.683200000000056H208.008533c-76.253867 0-138.6496 67.857067-138.6496 150.7328v225.962667c0 82.056533 61.098667 149.2992 136.328534 150.664533V697.002667C205.687467 809.028267 301.056 894.702933 410.146133 894.702933c115.9168 0 204.526933-92.296533 204.526934-197.768533 0-19.797333-13.653333-32.9728-34.133334-32.9728s-34.065067 13.175467-34.065066 32.9728c0 72.4992-61.371733 131.822933-136.328534 131.822933s-136.328533-59.323733-136.328533-131.754666v-131.8912h350.208c42.5984 0 80.827733-21.0944 106.2912-54.135467 8.328533-10.786133 15.36-22.869333 20.6848-35.976533L610.0992 322.62826700000005c10.786133 4.778667 22.050133 8.738133 33.792 11.741866 14.5408-25.053867 34.065067-40.1408 63.2832-40.1408 29.218133 0 53.521067 15.018667 63.2832 40.1408 38.912-10.0352 73.045333-30.037333 111.957333-60.2112-9.693867-20.0704-14.609067-50.176 0-75.229866 9.762133-20.0704 34.133333-35.089067 58.436267-35.089067h4.846933c9.762133-20.0704 9.762133-40.1408 9.762134-60.2112 0-20.0704-4.846933-40.1408-9.762134-60.2112h-4.778666c-24.3712 0-43.895467-10.0352-58.504534-35.089067-14.609067-25.053867-14.609067-55.159467 0-75.229866-29.218133-30.037333-63.2832-50.176-102.1952-60.2112-14.609067 25.122133-34.133333 40.1408-63.351466 40.1408-29.218133 0-53.521067-15.018667-63.2832-40.1408a215.2448 215.2448 0 0 0-102.263467 60.2112c9.762133 20.0704 14.609067 50.176 0 75.229866-9.693867 20.0704-34.065067 35.089067-58.368 35.089067h-4.9152c-9.693867 20.0704-9.693867 35.157333-9.693867 60.2112v60.2112h4.778667c24.439467 0 43.895467 10.0352 58.504533 35.089067 10.922667 18.773333 13.653333 40.413867 8.192 58.504533z m167.048534-252.654933c56.251733 0 102.263467 44.4416 102.263466 98.850133 0 54.408533-46.011733 98.9184-102.263466 98.9184-56.183467 0-102.1952-44.509867-102.1952-98.9184s46.011733-98.850133 102.1952-98.850133z m0 148.2752c25.6 0 51.2-19.797333 51.2-49.425067s-20.48-49.425067-51.2-49.425067c-30.651733 0-51.131733 19.797333-51.131734 49.425067 0 29.696 20.48 49.425067 51.2 49.425067z"  horiz-adv-x="1024" />

    
    <glyph glyph-name="chexiao" unicode="&#58967;" d="M284.444444 327.11111100000005c34.133333 0 56.888889-22.755556 56.888889-56.888889s-22.755556-56.888889-56.888889-56.888889H227.555556c-34.133333 0-56.888889 22.755556-56.888889 56.888889s22.755556 56.888889 56.888889 56.888889h56.888888z m284.444445 113.777778c0 34.133333-22.755556 56.888889-56.888889 56.888889H227.555556c-34.133333 0-56.888889-28.444444-56.888889-56.888889 0-34.133333 22.755556-56.888889 56.888889-56.888889h284.444444c28.444444 0 56.888889 22.755556 56.888889 56.888889z m250.311111-170.666667H739.555556V384l-227.555556-170.666667 227.555556-170.666666v113.777777h79.644444c45.511111 0 91.022222-28.444444 91.022222-62.577777v-39.822223c0-34.133333-39.822222-62.577778-91.022222-62.577777H625.777778v-113.777778h193.422222c113.777778 0 204.8 79.644444 204.8 176.355555v39.822223c0 96.711111-91.022222 176.355556-204.8 176.355555zM682.666667 611.555556c0 34.133333-22.755556 56.888889-56.888889 56.888888H227.555556c-34.133333 0-56.888889-28.444444-56.888889-56.888888 0-34.133333 22.755556-56.888889 56.888889-56.888889h398.222222c28.444444 0 56.888889 22.755556 56.888889 56.888889zM113.777778 31.28888900000004V736.711111c0 39.822222 0 45.511111 51.2 45.511111h637.155555c51.2 0 51.2-11.377778 51.2-45.511111v-256h113.777778V736.711111C967.111111 839.111111 910.222222 896 802.133333 896H164.977778C56.888889 896 0 844.8 0 736.711111v-711.111111C0-76.79999999999995 56.888889-128 164.977778-128h267.377778v113.777778H164.977778c-45.511111 0-51.2 0-51.2 45.511111z"  horiz-adv-x="1024" />

    
    <glyph glyph-name="jiaoshi" unicode="&#58932;" d="M88.096 675.7760000000001c0 69.44 58.176 125.6 129.952 125.76h620.16c71.776 0 129.824-56.32 129.952-125.76v-341.824c-0.128-69.44-58.176-125.6-129.952-125.76h-313.44c5.312 8.128 9.056 17.184 10.784 26.688l27.616 26.688h274.88c41.184 0 74.56 32.288 74.56 72.224V675.7760000000001c0 39.776-33.376 72.064-74.56 72.064H217.92c-41.184 0-74.4-32.288-74.56-72.064v-341.824c0.16-36.192 27.936-66.784 65.056-71.296v-17.184c0-13.12 3.744-26.048 10.912-37.28h-1.568c-71.776 0.16-129.792 56.32-129.792 125.76l0.16 341.824z m374.112-498.304l-179.264-0.16v22.784c-25.728 0-46.656 20.256-46.656 45.248v185.792c0 32.64 24.512 60.864 58.976 67.712l25.12 4.992 52.256-100.8 52.288 100.8 25.12-4.992c34.336-7.04 58.976-35.104 58.976-67.712v-149.76l163.968 158.656a12.384 12.384 0 0 0 8.896 3.584 12.608 12.608 0 0 0 12.64-12.16c0-3.264-1.408-6.4-3.744-8.576l-181.76-175.84v-1.568c0-24.96-20.928-45.216-46.656-45.216l-0.16-22.784z m-149.44 420.48c2.304 33.984 21.984 56.448 60.512 56.448 39.488 0 56.8-25.92 58.976-56.48 9.984 0 10.624-12.8 9.376-22.304-1.28-9.056-8.736-20.128-16.096-23.872-22.144-65.216-83.936-65.216-106.24 0-7.328 3.744-14.816 14.816-16.064 23.872-1.248 9.536-0.48 22.304 9.504 22.304z m42.24-655.456H88.128v108.736c0 21.856 8.896 42.752 24.96 58.24a86.336 86.336 0 0 0 60.064 24h96.864c22.496 0 44.16-8.576 60.096-24 15.904-15.488 24.96-36.384 24.8-58.24v-108.736h0.16z m308 0h-266.944v108.736c0 21.856 8.896 42.752 24.96 58.24a86.304 86.304 0 0 0 60.064 24h96.896c22.464 0 44.16-8.736 60.064-24 15.904-15.488 24.96-36.384 24.96-58.24v-108.736z m307.968 0h-266.944v108.736c0 21.856 8.896 42.752 24.96 58.24a86.4 86.4 0 0 0 60.224 24h96.896c22.464 0 44.16-8.576 60.064-24 15.904-15.488 24.8-36.384 24.8-58.24v-108.736z"  horiz-adv-x="1024" />

    
    <glyph glyph-name="kechengbiao" unicode="&#59361;" d="M301.056 848.896L69.632 783.36l95.744-19.968 2.56-75.776s90.624 50.176 251.904 0V758.2719999999999l100.864 25.088c-0.512 0-219.648 65.536-219.648 65.536zM465.92 687.616h-10.24v-67.072h36.864l-3.584 67.072h-10.752V773.12H465.92v-85.504zM299.008 455.68c76.288 0 138.24 61.952 138.24 138.24 0 15.36-2.56 29.696-7.168 43.52-33.792 15.36-80.384 24.576-131.584 24.576s-97.792-9.728-131.584-24.576c-4.608-13.824-7.168-28.16-7.168-43.52 1.024-76.288 62.976-138.24 139.264-138.24zM149.504 331.264c38.4 23.04 46.592 78.848 23.552 117.76-4.608 7.68-10.24 14.336-16.384 19.968-21.504-2.56-50.176-5.632-75.776-20.992-25.6-15.36-44.544-39.936-56.832-57.856 2.048-8.192 5.12-16.384 9.728-24.064 22.016-38.912 76.8-57.856 115.712-34.816z m729.088 31.744c39.424-21.504 91.648 0.512 113.152 39.936 4.096 7.68 7.168 15.872 8.704 24.576-13.312 17.408-30.208 39.936-56.832 54.272-26.624 14.336-57.344 17.408-79.36 18.944-6.144-5.632-11.776-12.8-15.872-20.48-20.992-39.424-9.216-95.744 30.208-117.248z m-625.152-47.616h137.728v-78.848H253.44v78.848z m177.152-118.272h157.696v-98.816H430.592v98.816z m-177.152 0h137.728v-98.816H253.44v98.816z m177.152 118.272h157.696v-78.848H430.592v78.848zM252.416-40.960000000000036l138.752 1.536v98.816l-138.752-0.512V-40.960000000000036z m178.176 100.352h157.696v-98.816H430.592v98.816zM867.84 343.03999999999996c-26.112 14.336-41.984 41.472-46.08 70.656-2.048 14.336-13.824 25.088-28.16 25.088H246.272c-14.848 0-26.624-11.264-28.16-25.6-4.096-36.352-21.504-79.872-57.856-101.376-22.528-13.312-48.64-16.384-73.216-13.824-16.896 2.048-32.256-11.264-32.256-28.16v-285.696c0-61.44 50.176-112.128 112.128-112.128h685.056c61.44 0 112.128 50.176 112.128 112.128v323.584c0 18.432-17.408 31.744-35.328 27.648-20.992-4.608-41.984-2.56-60.928 7.68z m-62.464-401.92c0-15.36-4.096-19.968-19.968-19.968H233.472c-15.872 0-19.968 4.096-19.968 19.968v398.336c0 15.36 4.096 15.36 19.968 15.36h551.936c15.872 0 19.968 0 19.968-15.36v-398.336zM627.712 59.39200000000005h137.728v-98.816h-137.728v98.816z m0 256h137.728v-78.848h-137.728v78.848z m0-118.272h137.728v-98.816h-137.728v98.816zM723.456 896L486.4 828.928l97.792-20.48 2.56-77.312s92.672 51.712 257.536 0V803.328l102.912 25.6L723.456 896zM891.392 731.136h-10.24v-68.608h37.888l-3.584 68.608h-11.264v87.04h-12.8v-87.04zM720.896 493.568c78.336 0 141.824 63.488 141.824 141.824 0 15.36-2.56 30.72-7.168 44.544-34.304 15.872-81.92 25.6-134.656 25.6-52.224 0-99.84-9.728-134.656-25.6-4.608-13.824-7.168-29.184-7.168-44.544 0.512-78.336 64-141.824 141.824-141.824z"  horiz-adv-x="1024" />

    
    <glyph glyph-name="yunxu" unicode="&#59216;" d="M512 896C229.23 896 0 666.77 0 384s229.23-512 512-512 512 229.23 512 512S794.77 896 512 896z m292.2-369L445.8 168.60000000000002a51.18 51.18 0 0 0-72.4 0L219.8 322.20000000000005a51.19 51.19 0 1 0 72.4 72.4l117.4-117.39L731.8 599.4a51.19 51.19 0 0 0 72.4-72.4z"  horiz-adv-x="1024" />

    
    <glyph glyph-name="tuichudenglu" unicode="&#58918;" d="M676.70126848 310.22101743999997V146.83993124999995c0-13.9188755-11.26766112-25.18653662-25.1865366-25.18653661h-226.18172681V651.399168c0 15.90728628-8.28504494 39.93391661-35.29429144 53.5213903-15.07878178 7.62224133-216.23967289 108.03698599-216.23967288 108.036986h477.71569113c13.9188755 0 25.18653662-11.26766112 25.1865366-25.18653662v-226.34742772h62.80064066V838.30978181c0 20.87831325-16.90149168 37.61410402-37.77980494 37.61410402H85.97756439c-20.87831325 0-37.77980492-16.90149168-37.77980492-37.61410402V96.63255892999996c0-14.58167909 8.28504494-27.17494739 20.38121055-33.47158155 0.1657009 0 0.1657009-0.1657009 0.3314018-0.1657009 16.57008987-8.78214764 244.24312478-133.55492441 327.92207865-177.63136347 17.72999617-9.27925033 28.50055458 0.99420539 28.5005546 11.10196021v162.38688079H701.8878051c20.87831325 0 37.77980492 16.90149168 37.77980492 37.77980492V310.22101743999997h-62.96634154z m0 0M991.03587345 435.9879996L802.46825066 624.5556224v-125.76698217H488.29934659v-125.76698215h314.16890407v-125.60128128L991.03587345 435.9879996z m0 0"  horiz-adv-x="1024" />

    
    <glyph glyph-name="xuanze" unicode="&#59030;" d="M85.333333-1.7066670000000386a85.333333 85.333333 0 0 0-81.066666 85.333334V810.666667A85.333333 85.333333 0 0 0 85.333333 896h861.866667a85.333333 85.333333 0 0 0 76.8-85.333333v-520.533334l-64 53.76V793.6a38.4 38.4 0 0 1-37.546667 38.4H98.986667a38.4 38.4 0 0 1-37.546667-38.4v-695.466667a37.546667 37.546667 0 0 1 37.546667-37.546666h235.52v-62.293334zM645.973333 49.49333300000001L512-86.18666700000006V463.36l412.16-354.986667H740.693333l73.386667-192.853333-96.426667-43.52z m-143.36-147.626666z m314.026667 7.68z"  horiz-adv-x="1024" />

    
    <glyph glyph-name="fanhui" unicode="&#58965;" d="M643.38944 667.80653037H442.96419555V834.32941037l-438.19235555-223.83502222 438.19235555-223.77813333V553.18110815H659.41048889c171.03416889 0 256.55182222-73.67111111 256.55182222-221.07022223 0-152.87182222-88.22556445-226.54407111-267.21393778-226.5440711H146.35918222v-117.38908445h510.39800889c240.47616 0 363.39370667 111.91751111 363.39370667 332.98887111 0 232.01450667-125.56743111 346.63992889-376.76145778 346.63992889z"  horiz-adv-x="1024" />

    
    <glyph glyph-name="tianjia" unicode="&#58889;" d="M113.777778 782.222222v-796.444444h796.444444V782.222222H113.777778z m0 113.777778h796.444444a113.777778 113.777778 0 0 0 113.777778-113.777778v-796.444444a113.777778 113.777778 0 0 0-113.777778-113.777778H113.777778a113.777778 113.777778 0 0 0-113.777778 113.777778V782.222222a113.777778 113.777778 0 0 0 113.777778 113.777778zM455.111111 611.555556a56.888889 56.888889 0 0 0 113.777778 0v-455.111112a56.888889 56.888889 0 0 0-113.777778 0V611.555556zM739.555556 327.11111100000005H284.444444c-75.832889 0-75.832889 113.777778 0 113.777778h455.111112c75.832889 0 75.832889-113.777778 0-113.777778z"  horiz-adv-x="1024" />

    
    <glyph glyph-name="xiazai" unicode="&#59233;" d="M824 518.1c-6.2 14.2-20.3 24-36.3 24H630.1V817.7c0 21.5-17.8 39.4-39.4 39.4H433.2c-21.5 0-39.4-17.8-39.4-39.4V542H236.3c-16 0-30.1-9.8-36.3-24-6.2-14.8-3.1-32 8.6-43.1l275.7-275.7c7.4-8 17.8-11.7 27.7-11.7 9.8 0 20.3 3.7 27.7 11.7L815.3 475c11.7 11.1 14.8 28.3 8.7 43.1zM1023.9 168c0 32.6-26.5 59.1-59.1 59.1H679.4l-83.7-83.7c-22.8-22.2-52.3-34.5-83.7-34.5-31.4 0-60.9 12.3-83.7 34.5L345.2 227H59.1c-32.6 0-59-26.4-59-59v-196.9c0-32.6 26.5-59.1 59.1-59.1h905.7c32.6 0 59.1 26.5 59.1 59.1V168z m-78.7-137.9c0-21.5-17.8-39.4-39.4-39.4-21.5 0-39.4 17.8-39.4 39.4 0 21.5 17.8 39.4 39.4 39.4 21.5 0 39.4-17.8 39.4-39.4z m-157.6 0c0-21.5-17.8-39.4-39.4-39.4-21.5 0-39.4 17.8-39.4 39.4 0 21.5 17.8 39.4 39.4 39.4 21.6 0 39.4-17.8 39.4-39.4z"  horiz-adv-x="1024" />

    
    <glyph glyph-name="shezhi" unicode="&#58880;" d="M881 384c0 52.4 32.9 96.8 79 114.5-11 43.2-28 83.9-50.2 121.3C864.6 599.7 810 607.9 773 645c-37 37-45.2 91.7-25.1 136.8C710.4 804 669.7 821 626.5 832c-17.8-46.1-62.2-79-114.5-79-52.4 0-96.8 32.9-114.5 79-43.2-11-83.9-28-121.3-50.2 20.1-45.2 11.9-99.8-25.1-136.8-37-37-91.7-45.2-136.8-25.2C92 582.4 75 541.7 64 498.5c46.1-17.8 79-62.2 79-114.5 0-52.4-32.9-96.8-79-114.5 11-43.2 28-83.9 50.2-121.3C159.4 168.29999999999995 214 160.10000000000002 251 123c37-37 45.2-91.7 25.1-136.8C313.6-36 354.3-53 397.5-64c17.8 46.1 62.2 79 114.5 79 52.4 0 96.8-32.9 114.5-79 43.2 11 83.9 28 121.3 50.2-20.1 45.2-11.9 99.8 25.1 136.8 37 37 91.7 45.2 136.8 25.2C932 185.60000000000002 949 226.29999999999995 960 269.5c-46.1 17.7-79 62.1-79 114.5zM512 261c-67.9 0-123 55.1-123 123s55.1 123 123 123 123-55.1 123-123-55.1-123-123-123z"  horiz-adv-x="1024" />

    
    <glyph glyph-name="guanbi" unicode="&#59110;" d="M517.851-113.37099999999998c-269.165 0-488.594 219.428-488.594 491.52S248.686 866.743 517.851 866.743s488.595-219.429 488.595-488.594-216.503-491.52-488.595-491.52z m0 933.302C275.017 819.931 76.07 620.983 76.07 378.15S275.017-63.634000000000015 517.85-63.634000000000015s441.783 198.948 441.783 441.783S763.611 819.9300000000001 517.851 819.9300000000001zM517.851-128C239.91-128 14.63 100.20600000000002 14.63 378.149S239.909 881.37 517.85 881.37 1024 656.091 1024 378.15 795.794-128 517.851-128z m0 980.114c-263.314 0-473.965-213.577-473.965-473.965 0-263.315 213.577-473.966 473.965-473.966 263.315 0 473.966 213.577 473.966 473.966 2.926 260.388-210.651 473.965-473.966 473.965z m0-933.303c-251.611 0-456.411 204.8-456.411 456.412S266.24 831.634 517.851 831.634s456.412-204.8 456.412-456.411C977.189 123.61000000000001 772.389-81.19000000000005 517.85-81.19000000000005z m0 886.492c-234.057 0-427.154-193.097-427.154-427.154 0-236.983 193.097-427.155 427.154-427.155 236.983 0 427.155 193.097 427.155 427.155C947.93 612.206 754.834 805.303 517.85 805.303zM555.886 378.149L746.057 568.3199999999999c8.777 8.777 8.777 26.331 0 35.109h-2.926c-8.777 8.777-26.331 8.777-35.108 0L517.85 413.257 330.606 603.4300000000001c-11.703 8.777-26.332 8.777-35.109 0l-2.926-2.926c-8.777-8.777-8.777-26.332 0-35.109L482.743 378.15 292.57 187.97699999999998c-8.777-8.777-8.777-26.331 0-35.108l2.926-2.926c8.777-8.777 26.332-8.777 35.109 0l190.171 190.171L710.95 149.94299999999998c8.777-8.777 26.331-8.777 35.108 0l2.926 2.926c8.777 8.777 8.777 26.331 0 35.108L555.886 378.15z"  horiz-adv-x="1024" />

    
    <glyph glyph-name="fenyexiayiye" unicode="&#58937;" d="M298.59-64.61000000000001c12.13 0 24.32 4.11 34.33 12.53l410.94 345.83c26.5 22.3 41.69 54.05 41.69 87.12 0 33.43-15.49 65.63-42.49 88.36L326.16 820.0699999999999c-22.55 18.98-56.21 16.08-75.18-6.47-18.97-22.55-16.08-56.21 6.47-75.18l416.89-350.84c3.31-2.79 4.49-5.29 4.49-6.71 0-1.48-1.38-3.52-3.69-5.47L264.2 29.58000000000004c-22.55-18.97-25.44-52.63-6.47-75.18 10.56-12.54 25.66-19.01 40.86-19.01z"  horiz-adv-x="1024" />

    
    <glyph glyph-name="mobanshangchuanxiazai" unicode="&#58899;" d="M768.096149 213.38873999999998c101.074111 0.085995 170.589061 69.770935 170.589062 170.589061 0 100.903121-69.941925 170.588061-170.845047 170.588062 0 141.332766-114.293341 255.883092-255.626106 255.883091S258.974812 695.898628 258.974812 554.565863c-100.903121 0-173.232907-69.68594-173.232907-170.588062s69.68594-170.589061 170.589061-170.589061v-85.294031a255.883092 255.883092 0 0 0-66.871104 502.980696 329.064828 329.064828 0 0 0 645.507391 0 255.968087 255.968087 0 0 0-66.871104-502.980696v85.295031z m-341.177122 25.758499l-25.332524-25.416519a42.647515 42.647515 0 1 0-60.302487 60.387482l95.61443 95.614429a42.56152 42.56152 0 0 0 75.315612-27.4634V43.73862399999996a42.647515 42.647515 0 0 0-85.295031 0V239.06224399999996z m255.883092-221.082119l25.332524 25.332524a42.647515 42.647515 0 1 0 60.302487-60.302487l-95.61443-95.700424a42.56152 42.56152 0 0 0-75.315612 27.4644V213.38873999999998a42.647515 42.647515 0 0 0 85.295031 0v-195.32362z"  horiz-adv-x="1024" />

    
    <glyph glyph-name="shangyiye" unicode="&#59362;" d="M725.41 832.61c-12.13000001 0-24.32-4.11-34.33-12.53000001l-410.94-345.82999999c-26.5-22.3-41.69-54.05-41.69-87.12 0-33.43000001 15.49-65.63 42.49-88.36L697.84-52.07000000000005c22.55-18.98 56.21-16.08 75.18 6.47 18.96999999 22.55 16.08 56.21-6.47 75.18l-416.89 350.84c-3.31000001 2.79-4.49 5.29-4.49 6.71 0 1.48000001 1.38 3.52 3.69 5.47L759.8 738.42c22.55 18.96999999 25.44 52.63 6.47 75.18-10.56 12.54000001-25.66 19.01000001-40.86 19.01z"  horiz-adv-x="1024" />

    


  </font>
</defs>
</svg>
